Patient5_TMGait_0pt45_1_left_12_EMG.mot
version=1
nRows=20
nColumns=33
inDegrees=no
endheader
time	1LAddLong	2LGlutMax	3LGlutMed	4LIliopsoas	5LSemiMemb	6LBicFemLong	7LRecFem	8LTensFascLat	9LVastMed	10LVasLat	11LGasMed	12lGasLat	13LTibAnt	14LPeroneusLong	15LSol	16LTibPost	17RAddLong	18RGlutMax	19RGlutMed	20RIliopsoas	21RSemiMemb	22RBicFemLong	23RRecFem	24RTensFascLat	25RVastMed	26RVasLat	27RGasMed	28RGasLat	29RTibAnt	30RPeroneusLong	31RSol	32RTibPost
18.61	0.18173	0.004883	0.015106	0.000763	0.048828	-0.038757	0.027771	-0.046082	0.013885	0.001984	-0.014343	0.011902	0.014954	0.019684	0.031586	0.16663	-0.046082	-0.011444	-0.52933	-0.21606	0.064697	0.35385	-0.00946	0.41626	0.1294	-0.065002	0.017395	0.44571	-0.02243	-0.021973	0.024567	-0.083466
18.611	0.15595	0.005646	0.004272	-0.01236	0.035553	-0.055084	0.032654	0.006256	0.012665	-0.00946	-0.012817	0.015106	0	0.020447	0.027161	0.013123	-0.027313	-0.020752	-0.49393	-0.24963	0.026855	0.12543	-0.011902	0.26901	0.22232	0.001526	0.028381	0.26779	-0.023956	-0.019836	-0.020142	0.28336
18.612	0.077667	-0.002289	-0.000305	-0.038757	0.037231	-0.050507	0.009613	0.07843	0.015869	-0.008545	-0.011139	0.001984	-0.016632	0.010681	0.030212	-0.015106	-0.025787	-0.03067	-0.25314	0.11551	-0.029297	-0.12543	-0.00061	0.11246	0.21088	0.12131	0.032501	0.15427	-0.012817	-0.014191	-0.057068	0.36652
18.613	0.023804	0.000916	0.006409	-0.038757	0.036316	-0.053406	-0.015106	0.15182	0.024414	-0.017548	-0.016479	0.015869	-0.059204	0.018768	0.033112	-0.26108	-0.02533	-0.03952	0.083771	0.098877	-0.028992	-0.26032	0.001678	-0.02655	0.15396	0.093994	0.053406	0.16007	-0.005646	-0.009308	-0.043335	-0.11337
18.614	-0.006256	0.001373	0	-0.02121	0.02533	-0.049744	-0.036774	0.11566	0.023041	-0.024109	-0.006866	0.012054	-0.042572	0.013885	0.03479	-0.11047	-0.027618	-0.020599	0.23819	0.055237	-0.069733	-0.35553	-0.000458	-0.074158	0.089722	-0.044556	0.028381	-0.056152	-0.008698	-0.010376	-0.001526	-0.29098
18.615	-0.011292	-0.001526	0.005188	0.002289	0.025635	-0.053558	-0.062256	0.15701	0.023651	-0.018005	-0.001984	0.004425	-0.055847	0.011749	0.036316	0.027771	-0.023193	-0.003815	-0.001526	-0.31601	-0.12726	-0.30411	-0.014191	-0.11032	0.054321	-0.11368	0.0383	-0.16068	-0.010071	-0.009613	0.001678	-0.36331
18.616	-0.062714	0.003815	-0.015106	0.099335	0.02655	-0.04364	-0.050201	0.17853	0.024719	-0.010223	0.010834	0	-0.013733	0.00946	0.044403	0.020905	-0.021667	-0.007477	-0.014038	-1.0033	-0.1326	-0.23254	-0.009003	-0.076752	-0.028992	-0.08667	0.055389	0.032806	-0.004883	-0.017548	0.006866	-0.14252
18.617	-0.031586	0.00824	-0.006104	0.09903	0.018768	-0.039825	-0.023651	0.21988	0.015259	0.000916	0.006409	-0.011749	0.067596	0.016479	0.040894	0.072021	-0.019531	-0.010986	0.007629	0.39154	-0.13321	-0.14282	0.001526	-0.049286	-0.10346	0.001831	0.006104	-0.046692	0.002289	-0.027771	0.047302	0.062866
18.618	-0.056763	0.002441	-0.009766	-0.031433	0.027008	-0.042114	0.001831	0.2211	0.008698	0.006714	0.000763	0.001831	0.12894	0.026855	0.034943	0.033417	-0.009003	-0.020905	0.19272	0.793	-0.14877	-0.19989	0.001221	-0.14481	-0.16113	0.011292	-0.078888	0.036011	0.001831	-0.022888	0.025482	-0.030212
18.619	-0.021515	0.002747	-0.013123	0.044098	0.04425	-0.03006	0.006409	0.26703	0.01358	-0.005035	0.006714	0.003357	0.20981	0.033569	0.026245	0.03006	-0.006409	-0.024872	0.56442	-0.16663	-0.065918	-0.22736	-0.006561	-0.19562	-0.19089	-0.002289	-0.033875	0.066986	-0.016327	-0.025787	0.007324	0.17853
18.62	0.020905	0.005341	-0.011139	0.025787	0.015564	-0.023041	-0.007629	0.3157	0.016174	-0.006561	0.003662	-0.005646	0.1149	0.027313	0.025635	-0.14008	0.006866	-0.020447	0.53879	0.439	0.027313	-0.09491	-0.00885	-0.24353	-0.2449	0.000458	0.024719	-0.054474	-0.016785	-0.00061	-0.004578	0.20554
18.621	0.030518	0.009003	0.008545	0.002441	0.031433	-0.018005	0.002136	0.31647	0.007782	-0.00946	0.000916	0.024567	-0.015259	0.029297	0.025024	-0.088806	0.006714	-0.005951	0.29343	0.55679	-0.029755	0.29907	-0.01358	-0.22888	-0.25345	-0.025482	0.056915	-0.000458	-0.006256	0.016479	-0.018921	-0.035553
18.622	0.014496	0.005035	0.008545	0.003967	0.034027	-0.022583	0.008392	0.29434	-0.00824	-0.003662	-0.008087	0.006409	-0.072937	0.029755	0.015869	0.13306	0.010223	0.002899	-0.11063	0.33035	-0.068359	0.36636	-0.026093	-0.14771	-0.22263	-0.048065	0.042725	-0.16007	-0.014191	-0.002594	0.003967	-0.15747
18.623	0.040283	0.010529	-0.00061	-0.009155	0.021667	-0.01358	0.000916	0.26184	-0.001373	-0.007782	-0.000916	0.009155	-0.092773	0.023193	0.021667	0.072937	0.005646	0.014954	-0.44189	-0.11643	-0.14221	0.23056	-0.036774	-0.11581	-0.16479	-0.12711	-0.012817	-0.21713	-0.039368	-0.010834	-0.024109	-0.26627
18.624	0.037994	0.007324	-0.002747	-0.023193	0.027008	-0.010681	0.001831	0.23224	0.01297	-0.00061	0.006866	0.017242	-0.075531	0.024719	0.0354	0.14923	0.012207	0.013275	-0.79788	-0.168	-0.13763	0.10147	-0.033875	0.013275	-0.16235	-0.078888	-0.013123	-0.26199	-0.039215	-0.010681	-0.030365	-0.062256
18.625	-0.027313	0.010681	0.006409	-0.035858	0.024261	-0.009918	0.015106	0.21942	0.016479	-0.002289	0.002289	0.026093	-0.15121	0.030518	0.024567	0.063171	-0.002136	0.015411	-1.178	-0.14862	-0.06134	0.050201	-0.02594	0.22903	-0.1413	0.005493	-0.071411	-0.18249	-0.030975	-0.001678	-0.045471	-0.029755
18.626	-0.16129	0.007477	-0.00946	-0.027924	0.028076	-0.013733	0.002289	0.168	0.019531	-0.012817	-0.000458	0.013428	-0.073242	0.037231	0.031738	-0.035248	-0.000916	0.020294	-0.92621	0.34424	0.009766	0.046539	-0.025177	0.22018	-0.12894	-0.08728	-0.064545	-0.1236	-0.018768	0.020905	-0.012665	0.001831
18.627	-0.19623	0.000458	-0.017548	-0.010834	0.027466	-0.005951	-0.007782	0.1268	0.01709	-0.000153	-0.000916	0.027618	-0.048065	0.037384	0.037689	-0.11185	0.003052	0.021362	-0.56595	-0.15793	0.06012	0.07019	-0.012665	0.1294	-0.10651	-0.10437	-0.018616	-0.081635	-0.017548	0.029297	0.018768	0.073547
18.628	-0.038605	0.000458	-0.020752	0.011749	0.031586	-0.015259	-0.002136	0.11917	0.020142	-0.000916	-0.012665	0.032806	-0.061646	0.032196	0.032349	-0.032043	0.001526	0.021667	-0.34561	0.88547	0.13214	-0.057068	-0.019531	0.097656	-0.06424	-0.15884	-0.015259	-0.11063	0.000305	0.021057	0.027466	0.088043
18.629	0.00885	0.000458	-0.023041	0.048523	0.027313	-0.02243	-0.007019	0.15533	0.018616	0.001373	-0.009918	0.026245	-0.11215	0.034485	0.021973	-0.15259	0.003815	0.023651	0.042725	-0.6221	0.12695	-0.12405	-0.014954	-0.013123	0.002899	-0.19318	0.002747	-0.16403	0.021667	0.017242	0.019684	0.005493
